<?xml version="1.0" encoding="UTF-8"?>
<svg width="16px" height="16px" viewBox="0 0 16 16" version="1.1" xmlns="http://www.w3.org/2000/svg" xmlns:xlink="http://www.w3.org/1999/xlink">
    <title>cursor-marquee-16-dk</title>
    <g id="cursor-marquee-16-dk" stroke="none" stroke-width="1" fill="none" fill-rule="evenodd">
        <path d="M13.8666667,1.06666663 L12.8,1.06666663 L12.8,-4.6667022e-08 L14.9333334,-4.6667022e-08 L14.9333334,2.1333333 L13.8666667,2.1333333 L13.8666667,1.06666663 Z M12.9813334,15.6224001 L14.8917334,14.6624 L13.2448,11.3770667 L16.0000001,11.3770667 L9.60000001,6.49279999 L9.60000001,14.8266667 L11.2938667,12.2816 L12.9813334,15.6224001 Z M10.6666667,11.4037334 L10.6666667,8.75520001 L12.8448,10.4170667 L10.6666667,11.4037334 Z M1.06666663,12.8 L-4.6667022e-08,12.8 L-4.6667022e-08,14.9333334 L2.1333333,14.9333334 L2.1333333,13.8666667 L1.06666663,13.8666667 L1.06666663,12.8 Z M-4.6667022e-08,2.1333333 L1.06666663,2.1333333 L1.06666663,1.06666663 L2.1333333,1.06666663 L2.1333333,-4.6667022e-08 L-4.6667022e-08,-4.6667022e-08 L-4.6667022e-08,2.1333333 Z M6.39999999,-4.6667022e-08 L4.26666665,-4.6667022e-08 L4.26666665,1.06666663 L6.39999999,1.06666663 L6.39999999,-4.6667022e-08 Z M1.06666663,6.39999999 L1.06666663,4.26666665 L-4.6667022e-08,4.26666665 L-4.6667022e-08,6.39999999 L1.06666663,6.39999999 Z M1.06666663,10.6666667 L1.06666663,8.53333334 L-4.6667022e-08,8.53333334 L-4.6667022e-08,10.6666667 L1.06666663,10.6666667 Z M10.6666667,-4.6667022e-08 L8.53333334,-4.6667022e-08 L8.53333334,1.06666663 L10.6666667,1.06666663 L10.6666667,-4.6667022e-08 Z M6.39999999,13.8666667 L4.26666665,13.8666667 L4.26666665,14.9333334 L6.39999999,14.9333334 L6.39999999,13.8666667 Z M14.9333334,4.26666665 L13.8666667,4.26666665 L13.8666667,6.39999999 L14.9333334,6.39999999 L14.9333334,4.26666665 Z" id="cursor-marquee-16" fill="#ADADAD"></path>
    </g>
</svg>