<?xml version="1.0" encoding="utf-8"?>
<!-- Generator: Adobe Illustrator 23.0.3, SVG Export Plug-In . SVG Version: 6.00 Build 0)  -->
<svg version="1.1" id="Layer_1" xmlns="http://www.w3.org/2000/svg" xmlns:xlink="http://www.w3.org/1999/xlink" x="0px" y="0px"
	 viewBox="0 0 24 24" style="enable-background:new 0 0 24 24;" xml:space="preserve">
<style type="text/css">
	.st0{fill:#0079C1;}
	.st1{fill:#BCBCBC;}
	.st2{fill:#4C4C4C;}
	.st3{fill:#FFFFFF;}
</style>
<g>
	<g>
		<g>
			<path class="st2" d="M23.2,7.1l-10-1.3c-0.1,0-0.2,0-0.2,0.1c0,0.1,0,0.2,0,0.3l6.4,8.3c0.1,0.1,0.2,0.1,0.3,0.1
				c0.1,0,0.2-0.1,0.2-0.2l0.1-3l2.7,1.4c0.1,0,0.2,0,0.3,0c0,0,0,0,0.1-0.1l0.9-1.6c0-0.1,0-0.1,0-0.2c0-0.1-0.1-0.1-0.1-0.1
				L21,9.3l2.3-1.8c0.1-0.1,0.1-0.2,0.1-0.3C23.4,7.2,23.3,7.1,23.2,7.1z"/>
		</g>
	</g>
	<g>
		<g>
			<polygon class="st2" points="18.2,21.8 16.2,21.8 16.2,20.8 17.2,20.8 17.2,19.8 18.2,19.8 			"/>
		</g>
		<g>
			<path class="st2" d="M13.2,21.8h-3v-1h3V21.8z M7.2,21.8h-3v-1h3V21.8z"/>
		</g>
		<g>
			<polygon class="st2" points="2.2,21.8 0.2,21.8 0.2,19.8 1.2,19.8 1.2,20.8 2.2,20.8 			"/>
		</g>
		<g>
			<path class="st2" d="M1.2,16.8h-1v-3h1V16.8z M1.2,10.8h-1v-3h1V10.8z"/>
		</g>
		<g>
			<polygon class="st2" points="1.2,4.8 0.2,4.8 0.2,2.8 2.2,2.8 2.2,3.8 1.2,3.8 			"/>
		</g>
		<g>
			<path class="st2" d="M13.2,3.8h-3v-1h3V3.8z M7.2,3.8h-3v-1h3V3.8z"/>
		</g>
		<g>
			<polygon class="st2" points="18.2,4.8 17.2,4.8 17.2,3.8 16.2,3.8 16.2,2.8 18.2,2.8 			"/>
		</g>
		<g>
			<path class="st2" d="M18.2,16.8h-1v-3h1V16.8z M18.2,10.8h-1v-3h1V10.8z"/>
		</g>
	</g>
</g>
</svg>
